<svg xmlns="http://www.w3.org/2000/svg" viewBox="0 0 400 600" role="img" aria-label="ReelVault logo">
<defs>
<linearGradient id="gA" x1="0%" y1="0%" x2="100%" y2="100%">
<stop offset="0%" stop-color="#6EE7F9"/><stop offset="25%" stop-color="#818CF8"/><stop offset="55%" stop-color="#C084FC"/><stop offset="80%" stop-color="#F472B6"/><stop offset="100%" stop-color="#34D399"/>
</linearGradient>
<linearGradient id="gB" x1="100%" y1="0%" x2="0%" y2="100%">
<stop offset="0%" stop-color="#34D399"/><stop offset="30%" stop-color="#6EE7F9"/><stop offset="60%" stop-color="#818CF8"/><stop offset="100%" stop-color="#C084FC"/>
</linearGradient>
<clipPath id="clipShield"><path d="M 120 40 L 280 40 Q 300 40 300 60 L 300 200 Q 300 270 200 300 Q 100 270 100 200 L 100 60 Q 100 40 120 40 Z"/></clipPath>
</defs>
<g clip-path="url(#clipShield)">
<rect x="100" y="40" width="200" height="260" fill="url(#gA)"/>
<path d="M 100 40 L 300 105 L 300 195 L 100 130 Z" fill="url(#gB)" opacity="0.55"/>
</g>
<path d="M 120 40 L 280 40 Q 300 40 300 60 L 300 200 Q 300 270 200 300 Q 100 270 100 200 L 100 60 Q 100 40 120 40 Z" fill="none" stroke="url(#gA)" stroke-width="3"/>
<text x="200" y="115" text-anchor="middle" font-family="system-ui, sans-serif" font-size="52" font-weight="500" fill="#0F172A" letter-spacing="-1.5">Reel</text>
<g transform="translate(200, 215)" color="#FFFFFF">
<polygon points="0,-55 47.6,-27.5 47.6,27.5 0,55 -47.6,27.5 -47.6,-27.5" fill="#0F172A" opacity="0.92"/>
<polygon points="0,-55 47.6,-27.5 47.6,27.5 0,55 -47.6,27.5 -47.6,-27.5" fill="none" stroke="currentColor" stroke-width="2"/>
<polygon points="0,-40 34.6,-20 34.6,20 0,40 -34.6,20 -34.6,-20" fill="none" stroke="currentColor" stroke-width="0.8" opacity="0.5"/>
<polygon points="0,-22 19,-11 19,11 0,22 -19,11 -19,-11" fill="none" stroke="currentColor" stroke-width="1" opacity="0.8"/>
<line x1="0" y1="-40" x2="0" y2="-22" stroke="currentColor" stroke-width="1" opacity="0.55"/>
<line x1="34.6" y1="-20" x2="19" y2="-11" stroke="currentColor" stroke-width="1" opacity="0.55"/>
<line x1="34.6" y1="20" x2="19" y2="11" stroke="currentColor" stroke-width="1" opacity="0.55"/>
<line x1="0" y1="40" x2="0" y2="22" stroke="currentColor" stroke-width="1" opacity="0.55"/>
<line x1="-34.6" y1="20" x2="-19" y2="11" stroke="currentColor" stroke-width="1" opacity="0.55"/>
<line x1="-34.6" y1="-20" x2="-19" y2="-11" stroke="currentColor" stroke-width="1" opacity="0.55"/>
<circle cx="0" cy="-40" r="5.5" fill="#0F172A" stroke="currentColor" stroke-width="1.5"/>
<circle cx="34.6" cy="-20" r="5.5" fill="#0F172A" stroke="currentColor" stroke-width="1.5"/>
<circle cx="34.6" cy="20" r="5.5" fill="#0F172A" stroke="currentColor" stroke-width="1.5"/>
<circle cx="0" cy="40" r="5.5" fill="#0F172A" stroke="currentColor" stroke-width="1.5"/>
<circle cx="-34.6" cy="20" r="5.5" fill="#0F172A" stroke="currentColor" stroke-width="1.5"/>
<circle cx="-34.6" cy="-20" r="5.5" fill="#0F172A" stroke="currentColor" stroke-width="1.5"/>
<polygon points="0,-10 8.7,-5 8.7,5 0,10 -8.7,5 -8.7,-5" fill="currentColor"/>
<circle cx="0" cy="0" r="3" fill="#0F172A"/>
</g>
<text x="200" y="365" text-anchor="middle" font-family="system-ui, sans-serif" font-size="52" font-weight="700" fill="url(#gA)" letter-spacing="-1.5">Vault</text>
<text x="200" y="390" text-anchor="middle" font-family="system-ui, sans-serif" font-size="10" font-weight="500" fill="#94A3B8" letter-spacing="3">PRIVATE · DECENTRALIZED · MEDIA</text>
</svg>
